/* XPM */
static char *easytransfer_xpm_tmp[] = {
/* columns rows colors chars-per-pixel */
"48 48 212 2 ",
"   c #050300",
".  c #0B0600",
"X  c #140D01",
"o  c #1B1101",
"O  c #101010",
"+  c #2A1A02",
"@  c #361803",
"#  c #3A2502",
"$  c #141634",
"%  c #381225",
"&  c #2A2A2A",
"*  c #4C1504",
"=  c #411303",
"-  c #551704",
";  c #631B05",
":  c #6A1D05",
">  c #563704",
",  c #482D03",
"<  c #7D2306",
"1  c #613E04",
"2  c #561F37",
"3  c #794E05",
"4  c #714905",
"5  c #020056",
"6  c #06045C",
"7  c #1B1C55",
"8  c #1B1D5B",
"9  c #39154A",
"0  c #1F2156",
"q  c #1F215A",
"w  c #353549",
"e  c #202256",
"r  c #21235B",
"t  c #292A5C",
"y  c #393A59",
"u  c #272949",
"i  c #02066C",
"p  c #1B1B64",
"a  c #02087C",
"s  c #0A0F71",
"d  c #21146D",
"f  c #242662",
"g  c #26296B",
"h  c #2A2C73",
"j  c #262778",
"k  c #3E3E7D",
"l  c #662755",
"z  c #403F76",
"x  c #444445",
"c  c #46464A",
"v  c #4A4A4C",
"b  c #4D4D52",
"n  c #48485B",
"m  c #535354",
"M  c #53535B",
"N  c #5B5B5C",
"B  c #525050",
"V  c #725B54",
"C  c #494963",
"Z  c #444463",
"A  c #525362",
"S  c #55566B",
"D  c #494874",
"F  c #5B5B7C",
"G  c #545477",
"H  c #65656A",
"J  c #68697F",
"K  c #757676",
"L  c #842406",
"P  c #942907",
"I  c #9C2B08",
"U  c #A42E08",
"Y  c #AA2F08",
"T  c #BC3409",
"R  c #B23109",
"E  c #AF3009",
"W  c #C3360A",
"Q  c #CA380A",
"!  c #D53B0A",
"~  c #DC3D0B",
"^  c #CE3C1A",
"/  c #E03E0B",
"(  c #865606",
")  c #905D06",
"_  c #956007",
"`  c #A76B07",
"'  c #B07108",
"]  c #DF400E",
"[  c #DA4314",
"{  c #C5461E",
"}  c #D75C36",
"|  c #BD694F",
" . c #C3674B",
".. c #CB8309",
"X. c #DA8D0A",
"o. c #D78A09",
"O. c #E4930A",
"+. c #030585",
"@. c #001286",
"#. c #00128C",
"$. c #181886",
"%. c #040197",
"&. c #001293",
"*. c #00129C",
"=. c #1D1C98",
"-. c #2C2F85",
";. c #282B8A",
":. c #2E3189",
">. c #313386",
",. c #32358A",
"<. c #3B3988",
"1. c #383A98",
"2. c #303095",
"3. c #0506A6",
"4. c #0012BE",
"5. c #0B13AC",
"6. c #201CBF",
"7. c #2525AD",
"8. c #3336AC",
"9. c #3839A4",
"0. c #2928BD",
"q. c #3838B9",
"w. c #302FAC",
"e. c #3E4481",
"r. c #3E41AD",
"t. c #3740A1",
"y. c #4C4C85",
"u. c #464687",
"i. c #585988",
"p. c #474796",
"a. c #585893",
"s. c #656685",
"d. c #717294",
"f. c #616199",
"g. c #494CA9",
"h. c #5759AA",
"j. c #4245B4",
"k. c #5758B7",
"l. c #5E60B8",
"z. c #6A6BA5",
"x. c #7677A6",
"c. c #7374BC",
"v. c #686AB6",
"b. c #0500C9",
"n. c #0904C8",
"m. c #0112C5",
"M. c #0012CC",
"N. c #1B1ACE",
"B. c #000FDC",
"V. c #0011D3",
"C. c #1715D4",
"Z. c #1F1BD3",
"A. c #100BC4",
"S. c #231ECE",
"D. c #2C2AC6",
"F. c #2C2CCD",
"G. c #393CC5",
"H. c #2E2ED6",
"J. c #383ADB",
"K. c #0803E8",
"L. c #0701FF",
"P. c #000CFF",
"I. c #0A04F9",
"U. c #110CF7",
"Y. c #0915FF",
"T. c #121CFF",
"R. c #110CE6",
"E. c #241FF6",
"W. c #3131E4",
"Q. c #3B37E4",
"!. c #2E34FF",
"~. c #3F42D7",
"^. c #4A4ECC",
"/. c #4649C5",
"(. c #595BCA",
"). c #4548D8",
"_. c #4F53D7",
"`. c #5255DB",
"'. c #5457D5",
"]. c #4C50C9",
"[. c #5E61C9",
"{. c #5D61D7",
"}. c #787AC8",
"|. c #7072D1",
" X c #5558E7",
".X c #494DF4",
"XX c #4649FF",
"oX c #4A4EFF",
"OX c #4447FB",
"+X c #4D51FD",
"@X c #595EF2",
"#X c #565BFF",
"$X c #5A5FFF",
"%X c #5257F8",
"&X c #4B4FED",
"*X c #5D61E8",
"=X c #5D61F5",
"-X c #5D62FF",
";X c #6467E7",
":X c #6165FF",
">X c #666BFB",
",X c #6D72FF",
"<X c #7376EC",
"1X c #898989",
"2X c #929294",
"3X c #9D9D9D",
"4X c #B6B6B6",
"5X c #AAAAAA",
"6X c #868AED",
"7X c #D6D6D6",
"8X c #F2F2F2",
"9X c None",
/* pixels */
"9X9X9X9X9X9X9X9X9X9X9X9X9X9X9X9X9X9X9X9X9X9X9X9X9X9X9X9X9X9X9X9X9X9X9X9X9X9X9X9X9X9X9X9X9X9X9X9X",
"9X9X9X9X9X9X9X9X$XoX@X}.d.H m v v v m H K d.}. X@X+XoXoXoXoXoXoXoXXXXXXXXXXXXXXX+XoX9X9X9X9X9X9X",
"9X9X9X9X9X9X9X9Xb.D.a.c b z z <.<.<.D k z x x F q.n.n.A.b.n.b.b.b.n.b.n.b.b.b.b.b.b.OX9X9X9X9X9X",
"9X9X9X9X9X9X9X9XD.G c D 8.N.C.C.C.C.C.N.0.9.u.b u.y.i.G r.0.C.C.C.C.C.C.C.C.C.C.C.C.T.9X9X9X9X9X",
"9X9X9X9X9X9X9X6XF v p.J.H.D.0.7.7.7.0.D.D.H.W.~.n C D y.G f.(.).W.W.W.W.W.W.W.W.W.W.Y.9X9X9X9X9X",
"9X9X9X9X9X9X9XF v a.).8.j 8 7 7 7 7 7 8 g ;.8.~./.g.y.Z b v v s.c.[. X&X.X.X.X.X.X.XT.9X9X9X9X9X",
"9X9X9X9X9X9X9Xb M ^.-.7 8 j >.%.%.%.+.+.i 6 6 $.=.R.I.I.R.S.1.C x S i.k.(.*X+X+XXXY.B.9X9X9X9X9X",
"9X9X9X9X9X9X9Xm i.g 7 ;.G.I.L.oXoXoXoX.XQ.q.;.p =.$.=.G.~..X+X`.k.a.A v N F z.c.|.q.9.9X9X9X9X9X",
"9X9X9X9X9X9Xm m p 5 %.K.L.oXoX-X/ / / / / / / U Y ^ l d d 2 I W / ] { [.i.G v v b N N N N N N m ",
"9X9X9X9X9X9Xm m e 2.oXoXoX$X/ / / / / / / / W o # U ! ! 9 % * ; L R W ] [ *X_.(.k.h.u.N N N N 9X",
"9X9X9X9X9X9Xm m 6 K.L.L.#X-X/ / / / / / / / ~ . 3 o T / ~ E L - * * ; L U '.=XL.L.L.m.9X9X9X9X9X",
"9X9X9X9X9X9XB m -.oXoXoX#X:X/ / / / / / / / / : 4 ( ; / ~ ~ ~ T I L - * * g ,.2.8.q.@.9X9X9X9X9X",
"9X9X9X9X9X9Xv m 5.L.L.L.#X:X/ / / / / / / / / U # o.+ P / / / / / ! W U L h e 5 5 5 $ 9X9X9X9X9X",
"9X9X9X9X9X9Xx m g.oXoX+X+X:X/ / / / / / / / / ! X o.'   ~ / / / / / / / ! `._.G.q.8.i 9X9X9X9X9X",
"9X9X9X9X9X9X& m <.L.L.L.$X$X/ / / / / / ~ P * - * _ O.1 : / / / / / / / / :X:XL.L.L.m.9X9X9X9X9X",
"9X9X9X9X9X9XO m M &XoXoX$X$X/ / / / / / P > _ ) ) ..O.o.+ T / / / / / / / :X:XoX+XoXm.9X9X9X9X9X",
"9X9X9X9X9X9X  x m 6.L.L.#X=X/ / / / / / T + o.O.o.` ` ` 1 L / / / / / / / :X:XL.L.L.m.9X9X9X9X9X",
"9X9X9X9X9X9X9Xw m D +XoX$X-X/ / / / / / / : > O.` = = @   / / / / / / / / >X:XoX+X+XM.9X9X9X9X9X",
"9X9X9X9X9X9X9Xu n m G.L.#X-X/ / / / / / / ~ . ' o.o Q / ~ / / / / / / / / :X:XL.L.L.M.9X9X9X9X9X",
"9X9X9X9X9X9X9X$ t M M =X#X-X/ / / / / / / / P + o., I / / / / / / / / / / :X:X+XoX+XM.9X9X9X9X9X",
"9X9X9X9X9X9X9Xg 5 ,.B y.>X:X/ / / / / / / / / : 3 ( ; / / / / / / / / / / :X:XL.L.L.m.9X9X9X9X9X",
"9X9X9X9X9X9X9Xg.7 j i.b s.>X/ / / / / / / / / W X ( . ! / / / / / / / / / >X:XoX+XoXM.9X9X9X9X9X",
"9X9X9X9X9X9X9X;Xi 6 3.u.B J } ] / / / / / / / / Y # + T / / / / / / / / / :X:XL.L.L.m.9X9X9X9X9X",
"9X9X9X9X9X9X9X,X~.8 p ).a.m B | [ ] / / / / / / / Y T / / / / / / / / / / :X:XoXoXoXV.9X9X9X9X9X",
"9X9X9X9X9X9X9X,XL.3.5 a K.k.A v V  .[ ] / ~ ~ ~ / / / / / / / / ~ / / #X$X-XL.L.L.L.M.9X9X9X9X9X",
"9X9X9X9X9X9X9X,XoX.X;.7 j K.Z.i.A v s.|.<X@X=X#X#X#X#X#X#X#X#X#X#X$X#X$XL.L.oXoXoXoXV.9X9X9X9X9X",
"9X9X9X9X9X9X9X>X#X#X%X-.7 g J.L.S.p.n c b i.k.Q.E.U.I.I.I.L.L.L.L.L.L.L.oXoX#X#X+X!.V.9X9X9X9X9X",
"9X9X9X9X9X9X9X>X$X:X-X%X>.q r 8..XoX_.h.i.A v c b s.c.c.|.|.;X=X X%X+XoX$X#X#X#X#XOXB.9X9X9X9X9X",
"9X9X9X9X9X9X9X>X-X:X:X:X-Xr.f 0 g j.@X:X-X;Xl.f.w $ y b v v v m s.x.}.<X*X:X-X$X#XoXY.9X9X9X9X9X",
"9X9X9X9X9X9X9X>X$X:X:X-X-X-X^.>.r 7 h j._.*X=X-X;X'.{.[.l.h.s.F S b v b H }.;X$X$XoXP.9X9X9X9X9X",
"9X9X9X9X9X9X9X:X$X-X:X:X-X-X$X-X^.>.f e e h 1.]. X@X=X@X$X$X$X@X*X{.l.a.S x d.<X$XoXP.9X9X9X9X9X",
"9X9X9X9X9X9X9X:X$X-X-X:X-X-X-X-X-X-X^.r.>.g r e r h 1.1.q.j.^. X X@X@X$X*Xi.v S <XoXP.9X9X9X9X9X",
"9X9X9X9X9X9X9X:X-X:X:X:X-X:X-X-X$X-X-X-X-X`.j.,.h f f r q 0 0 r g ,.r.^. X XS b M =XP.9X9X9X9X9X",
"9X9X9X9X9X9X9X:X-X-X-X:X-X-X-X-X-X-X-X-X:X:X-X-X=X_. X^.j.1.>.h g f 0 8 r 1.i.b v z._.9X9X9X9X9X",
"9X9X9X9X9X9X9X:X$X-X-X-X-X-X-X-X-X$X-X-X-X:X:X-X-X-X-X-X-X-X-X@X X/.r.1.g 0 Z m M b v 9X9X9X9X9X",
"9X9X9X9X9X9X9X:X$X-X-X-X-X-X$X-X-X$X-X-X-X-X-X-X-X-X-X-X-X$X-X-X-X$X$X$X`.:.n m m m b H 9X9X9X9X",
"9X9X9X9X9X9X9X:X#X-X-X-X-X-X-X-X-X-X-X-X-X:X-X-X-X-X-X-X-X$X-X$X$X$X#X-X$X%Xy m m m m v x 9X9X9X",
"9X9X9X9X9X9X9X:X-X-X#X:X-X:X:X:X:X-X-X-X-X-X-X-X-X-X$X-X-X-X-X-X-X$X$X$X$X-Xk b m m m m m 9X9X9X",
"9X9X9X9X9X9X9X:X$X-X-X:X:X-X:X-X-X-X-X-X-X-X-X-X-X-X$X-X-X-X-X-X-X$X$X$X$X$X1.b m m m m m v 9X9X",
"9X9X9X9X9X9X9X:X$X$X-X-X-X-X-X-X-X$X$X$X$X-X-X-X$X-X-X$X#X$X$X$X$X$X$X$X$X-X-.y m N v x v v 9X9X",
"9X9X9X9X9X9X9X:X$X#XXX-X-X$X$X$X$X#X#X$X$X$X-X-X-X-X#X-X#X#X-X#X-X#X-X#X-X#X9.e m B 2X3XK 5X1X9X",
"9X9X9X9X9X9X9X-X#X#XoX-X-X-X$X$X$X#X#X-X$X$X$X-X#X#X-X-X-X-X#X-X#X#X-X-X#X#X/.0 y b 2X4X7X5X4X9X",
"9X9X9X9X9X9X9X-X-XoXXX#X$X#X$X#X#X#X#X#X#X#X#X$X#X#X#X#X#X#X-X-X#X#X#X#X#X#X&Xj e t m 7X8X8X7X9X",
"9X9X9X9X9X9X9X-X-X-X#X:X-X-X$X$X-X-X:X:X-X:X-X-X-X-X-X#X-X#X-X-X-X-X-X-X-X#X#X/.0 7 u 1X3X1XK 9X",
"9X9X9X9X9X9X9X>X-X#X$X-X-X-X#X#X-X$X$X#X-X#X-X#X-X-X-X-X-X#X#X-X#X-X$X-X-X-X-X=Xf 0 !.9X9X9X9X9X",
"9X9X9X9X9X9X9X&.s 5.&.#.#.&.@.&.#.&.#.@.#.@.&.#.#.#.@.@.@.#.a &.@.#.#.&.&.&.&.*.3.p -X9X9X9X9X9X",
"9X9X9X9X9X9X9X&.a m.m.m.V.V.V.V.V.V.V.V.M.M.M.M.V.M.m.m.m.4.4.4.4.4.4.m.4.m.4.m.4.~.9X9X9X9X9X9X",
"9X9X9X9X9X9X9X9X9X9X9X9X9X9X9X9X9X9X9X9X9X9X9X9X9X9X9X9X9X9X9X9X9X9X9X9X9X9X9X9X9X9X9X9X9X9X9X9X"
};
